<?xml version="1.0" encoding="utf-8"?>
<!-- Generator: Adobe Illustrator 24.3.0, SVG Export Plug-In . SVG Version: 6.00 Build 0)  -->
<svg version="1.1" xmlns="http://www.w3.org/2000/svg" xmlns:xlink="http://www.w3.org/1999/xlink" x="0px" y="0px"
	 viewBox="0 0 500 500" style="enable-background:new 0 0 500 500;" xml:space="preserve">
<style type="text/css">
	.st0{display:none;fill:#327F26;}
	.st1{fill:#2BA46F;}
	.st2{fill:#208050;}
	.st3{fill:#CBECFF;}
	.st4{fill:#99CCCC;}
	.st5{fill:#FFFFFF;}
	.st6{fill:#73C7A6;}
</style>
<g id="Fills">
	<path class="st0" d="M145.58,349.69c2.6,0.3,5.13,0.95,7.7,2.53c4.07,2.51,7.28,6.45,11.77,8.06c9.97,3.58,20.61-5.76,31.03-3.9
		c4.45,0.8,8.34,3.58,12.77,4.51c10.01,2.1,19.67-5.61,29.89-5.43c3.69,0.06,7.32,1.16,11.01,1.11c6.83-0.09,11.56-4.01,17.3-6.97
		c5.32-2.74,11.46-3,17.27-1.72c4.86,1.07,9.98,2.39,14.73,0.9c2.87-0.9,5.35-2.78,7.42-4.97c1.39-1.47,2.66-3.21,2.85-5.22
		c0.25-2.54-1.34-4.99-3.46-6.41c-2.12-1.42-4.7-1.97-7.23-2.31c-7.14-0.96-13.63,2.05-20.67-0.14c-7.14-2.22-14.17-4.78-21.2-7.33
		c-3.48-1.26-6.94-2.53-10.61-3.18c-11.88-2.11-24.92,1.84-36.6,3.87c-12.87,2.24-25.93,4.23-39.03,3.2
		c-10.73-0.84-21.44-3.69-32.11-2.27c-4.36,0.58-8.6,1.87-12.85,2.99c-6.36,1.68-12.81,2.93-19.26,4.25c-3.39,0.7-10,4.45-4.91,8.52
		c2.39,1.92,5.98,0.86,8.77,1.38c3.45,0.64,6.72,1.93,9.95,3.28c5.44,2.27,11.26,4.39,17.19,4.8
		C140.21,349.44,142.93,349.38,145.58,349.69z"/>
	<path class="st1" d="M348.39,151.5c1.89-3.77,3.69-7.17,5.32-10.65c5.39-11.48,8.92-23.6,13.28-35.61
		c2.47-6.79,3.82-13.91,4.41-21.06c0.94-11.36,3.74-22.46,2.55-33.96c-0.34-3.33-1.87-5.55-4.72-7.17
		c-10.29-5.84-22.8-8.02-34.71-8.25c-5.55-0.11-11.11,0.37-16.66,0.67c-1.69,0.09-2.48,1.17-2.14,2.84
		c2.87,14.11,7.22,27.96,8.59,42.34c0.69,7.27,0.65,14.69-0.87,21.85c-1.79,8.46-3.77,17.44-6.7,25.56c-0.3,0.84-0.72,1.63-1.1,2.47
		C326.09,138.29,337.07,145.14,348.39,151.5z"/>
	<path class="st1" d="M399.83,76.24c-1.93,0.03-3.92,1.03-6,2.49c-7.09,4.97-8.06,9.06-10.14,17.12
		c-2.19,8.49-4.87,16.86-8.08,25.02c-4.3,10.92-10.17,21.05-14.72,31.84c-0.61,1.45-0.8,3.06-1.16,4.5c2.1,1.3,2.1,1.3,3.69,1.18
		c1.29-1.48,2.59-2.81,3.69-4.27c7.38-9.78,14.21-18.67,23.31-27.07c8.02-7.42,16.41-14.43,24.73-21.5
		c1.57-1.34,3.26-2.89,3.45-4.94c0.13-1.5-0.58-2.93-1.3-4.24C414.46,91.2,407.04,76.14,399.83,76.24z"/>
	<path class="st2" d="M371.31,159.21c0.46-0.06,0.91-0.5,1.21-0.92c4.55-6.06,8.57-12.41,13.57-18.13
		c4.84-5.53,10.77-9.41,16.44-14.02c7.25-5.9,13.95-12.47,20.81-18.81c6.02-5.56,10.49-12.06,6.14-20.24
		c-2.5-4.71-6.67-8.26-9.96-12.46c-4.55-5.81-7.85-13.27-14.61-16.24c-1.12-0.49-2.36-0.84-3.56-0.6c-1.37,0.27-2.47,1.25-3.44,2.25
		c-4.39,4.49-7.59,10.13-9.22,16.2c2.91-2.22,5.83-4.43,8.74-6.65c4.2-3.19,12.42,7.53,14.85,10.4c5.15,6.1,9.66,13.26,11.29,21.18
		c0.38,1.83-0.08,2.93-1.36,4.03c-18.46,15.9-37.95,30.97-51.29,51.72c-0.46,0.71-0.8,1.89-0.02,2.23
		C371.04,159.21,371.18,159.23,371.31,159.21z"/>
	<path class="st2" d="M310.42,128.29c0.15,0.03,0.3,0.05,0.46,0.06c2.43-11.64,4.35-23.39,5.76-35.2
		c1.27-10.64,2.13-21.52-0.11-31.99c-1.99-9.32-6.38-18.08-7.52-27.55c-0.06-0.5-0.1-1.05,0.16-1.48c0.37-0.59,1.15-0.72,1.83-0.8
		c22.71-2.45,44.58,0.59,65.08,10.59c0.8,0.39,1.57,1.35,1.84,2.21c0.43,1.38,0.51,2.89,0.6,4.35c0.3,5.24,0.58,10.48,0.78,15.72
		c0.96,25.3-6.2,51.35-18.51,73.34c-3.03,5.41-6.44,10.71-8.09,16.69c1.53-5.54,7.58-11.88,10.34-17.11
		c3.23-6.14,6.07-12.48,8.53-18.96c4.81-12.71,8.06-26.01,9.76-39.49c1.5-11.87,2-23.98,0.15-35.85
		c-1.98-12.68-23.12-18.28-33.49-21.09c-15.74-4.27-32.65-4.47-48.04,1.3c-2.2,0.82-4.71,2.26-4.72,4.6
		c-0.01,1.35,0.85,2.53,1.7,3.58c2.91,3.59,6.12,6.95,8.6,10.85c4.62,7.24,6.48,15.98,6.68,24.57c0.39,16.52-3.69,32.98-6.28,49.22
		c-0.4,2.5-0.8,5.09-0.16,7.54C306.36,125.7,308.12,127.86,310.42,128.29z"/>
	<path class="st1" d="M403.87,134.75c-4.14,2.09-7.33,3.51-10.71,6.99c-6.21,6.39-11.68,12.79-16.78,19.97
		c-1.7,2.39-1.72,2.62,0.82,3.86c0.31,0.15,0.7,0.16,0.9,0.21c5.96-10.33,17.26-16.39,28.71-18.21c1.1-0.17,2.17-0.55,3.43-0.88
		C408.74,142.14,407.23,137.98,403.87,134.75z"/>
	<path class="st2" d="M416.14,155.14c11.59-2.82-0.48-20.4-4.67-24.61c-0.46-0.46-0.95-0.92-1.57-1.11c-0.62-0.19-1.4-0.02-1.7,0.55
		c-0.28,0.52-0.09,1.16,0.12,1.71c1.24,3.21,3.16,6.24,4.77,9.28c1.17,2.22,2.38,4.6,2.16,7.1c-0.63,7.3-11.42,3.84-15.96,5.25
		c-4.24,1.31-7.78,4.26-10.83,7.39c-0.92,0.94-7.55,7.34-3.18,7.4c1.29,0.02,3.6-4.17,4.7-5.1c2.41-2.04,5.37-3.46,8.36-4.43
		C404.12,156.69,410.26,156.57,416.14,155.14z"/>
	<path class="st1" d="M301.23,113.84c0.11,0.04,0.23,0.04,0.35,0.01c2.11-0.55,2.09-10.47,2.18-12.2
		c0.45-8.88,0.89-17.76,1.34-26.65c0.03-0.56,0.01-1.23-0.45-1.55c-0.26-0.18-0.59-0.2-0.91-0.22c-2.08-0.1-4.17-0.19-6.25-0.29
		c-0.39-0.02-0.82-0.03-1.14,0.2c-0.5,0.36-0.5,1.09-0.45,1.7c0.8,9.28,1.8,18.55,2.97,27.79
		C299.1,104.36,299.46,113.25,301.23,113.84z"/>
	<path class="st2" d="M277.28,60.66c5.64,8.41,9.28,18.14,10.55,28.18c0.85,6.71,0.51,16.31,6.01,21.21
		c1.6-11.44-1.1-24.94-3.64-36.11c-1.93-8.45,11.23-5.55,16.19-5.46c-0.03,0,1.12-8.26,0.67-9.07c-2.11-3.79-9.79-1.99-13.2-1.7
		c-1.6,0.14-16.41,3.19-16.62,2.88C277.25,60.61,277.27,60.63,277.28,60.66z"/>
	<path class="st3" d="M268.86,143.64c0.1,23.11-11.07,46-29.35,60.13c-2.82,2.18-8.02,3.48-9,0.06
		c13.66-8.89,24.12-22.58,29.12-38.09c-43.75-17.46-95.41-13.77-136.23,9.73s-69.96,66.31-76.84,112.92
		C31.02,393.6,127.01,485.52,231.38,465.8c51.83-9.79,97.59-47.23,117.44-96.1c19.86-48.86,13.19-107.61-17.12-150.78
		c-8.74,12.03-13.89,26.64-14.62,41.49c-5.62-2.13-5.48-10.12-3.74-15.86c5.89-19.4,18.63-36.64,35.43-47.98
		C319.86,182.74,292.88,164.87,268.86,143.64z"/>
	<path class="st4" d="M404.24,166.7c-0.84,0.74-1.79,1.19-2.1,1.92c-3.04,7.08-19.21,3.21-24.61,1.68
		c-7.22-2.05-14.01-5.37-20.7-8.75c-8.27-4.18-16.47-8.5-24.51-13.11c-16.22-9.28-32.18-20.1-42.72-35.53
		c-5.66-8.29-8.77-17.78-13.79-26.35c-2.29-3.92-6.3,1.9-6.91,3.88c-1.25,4.03-0.78,8.53,0.72,12.43c2.06,5.37,5.87,9.86,9.74,14.11
		c18.72,20.58,40.43,38.44,64.24,52.82c3.64,2.2,7.33,4.32,11.25,5.96c7.36,3.09,15.34,4.41,23.29,5.17
		C385.26,181.62,412.96,180.45,404.24,166.7z"/>
	<path class="st4" d="M264.43,104.78c-1.15,1.44-1.77,2.73-2.81,3.4c-3.3,2.15-6.18,8.48-4.96,12.29c0.42,1.31,1.24,2.44,2.06,3.54
		c10.07,13.42,23.77,25.57,37.26,35.51c6.16,4.54,12.92,8.44,19.14,13.01c19.17,14.1,42.07,22.94,66.01,23.22
		c4.52,0.05,7.31-0.8,11.02-3.15c1.26-0.79,1.47-2.12,1.72-3.41c0.25-1.25,0.79-2.55-0.19-3.65c-2.19,0.22-4.24,0.42-6.29,0.63
		c-25.85,2.61-52.69-13.94-72.58-28.84c-9.63-7.21-18.63-15.24-27.11-23.75c-4.31-4.33-8.5-8.79-12.58-13.34
		c-3.57-3.99-7.75-7.83-9.64-12.96C265.24,106.58,264.91,105.91,264.43,104.78z"/>
	<path class="st5" d="M80.75,286.42c-0.01,0.3-0.02,0.6-0.02,0.91c-0.06,3.52,0.22,7.15,1.77,10.32s4.62,5.77,8.14,5.93
		c3.83,0.17,7.29-2.56,9.24-5.87c1.94-3.3,2.71-7.14,3.68-10.85c3.22-12.23,9.01-23.61,14.76-34.88c3.32-6.51,6.69-13.1,11.56-18.55
		c7.41-8.29,18.38-14.19,21.76-24.78c0.35-1.08,0.6-2.24,0.39-3.36c-0.57-3.03-4.21-4.43-7.29-4.34
		c-14.29,0.41-25.44,4.95-34.87,16.07c-5.94,7-10.28,15.19-14.4,23.39C88.17,254.91,81.26,270.22,80.75,286.42z"/>
	<path class="st5" d="M86.16,351.04c-0.06,5.05,0.2,10.59,2.31,15.26c1.69,3.73,9.23,11.29,12.56,4.75
		c3.37-6.62-2.16-16.01-2.38-22.85c-0.13-3.89-0.22-10.1-5.09-11.08C88.29,336.08,86.2,347.79,86.16,351.04z"/>
	<path class="st2" d="M145.58,349.69c2.6,0.3,5.13,0.95,7.7,2.53c4.07,2.51,7.28,6.45,11.77,8.06c9.97,3.58,20.61-5.76,31.03-3.9
		c4.45,0.8,8.34,3.58,12.77,4.51c10.01,2.1,19.67-5.61,29.89-5.43c3.69,0.06,7.32,1.16,11.01,1.11c6.83-0.09,11.56-4.01,17.3-6.97
		c5.32-2.74,11.46-3,17.27-1.72c4.86,1.07,9.98,2.39,14.73,0.9c2.87-0.9,5.35-2.78,7.42-4.97c1.39-1.47,2.66-3.21,2.85-5.22
		c0.25-2.54-1.34-4.99-3.46-6.41c-2.12-1.42-4.7-1.97-7.23-2.31c-7.14-0.96-13.63,2.05-20.67-0.14c-7.14-2.22-14.17-4.78-21.2-7.33
		c-3.48-1.26-6.94-2.53-10.61-3.18c-11.88-2.11-24.92,1.84-36.6,3.87c-12.87,2.24-25.93,4.23-39.03,3.2
		c-10.73-0.84-21.44-3.69-32.11-2.27c-4.36,0.58-8.6,1.87-12.85,2.99c-6.36,1.68-12.81,2.93-19.26,4.25c-3.39,0.7-10,4.45-4.91,8.52
		c2.39,1.92,5.98,0.86,8.77,1.38c3.45,0.64,6.72,1.93,9.95,3.28c5.44,2.27,11.26,4.39,17.19,4.8
		C140.21,349.44,142.93,349.38,145.58,349.69z"/>
	<path class="st6" d="M100.88,377.62c0.58-0.35,13.96,15.16,15.25,16.48c5.39,5.48,11.16,10.59,17.31,15.2
		c12.2,9.12,25.98,16.26,40.82,19.9c26.79,6.57,55.86,1.36,79.9-12.18c13.92-7.84,26.22-18.36,36.55-30.51
		c5.11-6,9.74-12.41,13.88-19.11c3.56-5.77,9.99-14.11,7-21.26c0.25,0.6-7.21,5.08-8.07,5.51c-2.97,1.47-6.04,2.01-9.33,1.89
		c-7.24-0.25-14.55-3.65-21.79-1.56c-6.41,1.86-11.19,7.84-17.78,8.95c-4.52,0.76-9.07-0.94-13.65-1.17
		c-11.08-0.56-21.73,7.45-32.57,5.12c-5.12-1.1-9.67-4.45-14.9-4.79c-6.14-0.4-11.72,3.41-17.75,4.66
		c-5.19,1.08-10.76,0.17-15.34-2.49c-4.15-2.41-7.52-6.21-12.05-7.8c-4.42-1.55-9.29-0.78-13.94-1.35
		c-8.31-1.03-15.49-6.27-23.56-8.48c-1.83-0.5-3.83-0.84-5.61-0.16c-6.99,2.64-0.52,16.16,0.37,20.73
		C106.58,370.08,105.35,374.91,100.88,377.62z"/>
</g>
<g id="Layer_1">
	<g>
		<path d="M336.46,219.3c2.18,3.09,4.13,5.86,6.09,8.63c0.13,0.19,0.3,0.36,0.4,0.57c1.94,4.19,4.13,8.24,6.36,12.28
			c27.49,49.75,16.35,120.02-15.91,164.52c-32.33,44.59-88.4,70.84-143.34,67.11C70.25,464.28-0.76,328,64.9,226.43
			c19.04-29.45,46.1-51.23,78.55-64.31c33.19-13.38,67.92-13.8,102.43-6.45c5.23,1.11,10.14,3.11,15.49,4.76
			c0.33-0.92,0.84-1.8,0.93-2.72c0.39-3.76,0.81-7.5,0.47-11.31c-0.48-5.24-2.64-9.79-5.25-14.19c-1.61-2.72-3.2-5.45-4.91-8.09
			c-1.64-2.54-1.35-5.33-1.26-8.1c0.12-3.38,1.99-6.85,3.97-9.5c1.46-1.95,6.7-4.3,7.29-6.03c0.6-1.77-0.7-4.74-0.31-6.85
			c0.59-3.21,2.27-6.22,4.12-8.86c0.75-1.06,12.47-12.35,13.14-10.98c-0.31-0.63-0.43-0.99-0.64-1.3
			c-2.67-3.99-12.26-13.91-3.46-16.29c7.36-1.99,14.43-2.82,21.98-3.34c2.52-0.17,5.04-0.35,8.04-0.56
			c-0.92-1.57-1.59-2.84-2.39-4.03c-1.42-2.11-2.93-4.15-4.37-6.24c-2.67-3.88-5.33-7.76-7.98-11.65
			c-8.78-12.88,28.94-15.74,35.03-15.77c8.88-0.05,17.77,1.19,26.29,3.7c10.01,2.95,20.48,8.24,29.51,13.46
			c8,4.63,8.22,15.76,7.67,24.09c-0.11,1.7-0.13,3.4-0.16,5.1c-0.01,0.51,0.08,1.02,0.15,1.84c0.53-0.37,0.87-0.51,1.08-0.76
			c1.46-1.7,2.96-3.33,4.93-4.5c4.52-2.68,6.84-7,12.44-2.61c0.67,0.52,1.33,1.05,2,1.58c6.94,5.61,12.52,12.7,17.94,19.72
			c2.49,3.23,5.16,6.08,6.3,10.06c1.72,5.94,7.03,22.22,0.84,26.35c-4.83,3.23-11.7,7.8-17.26,9.47c-1.93,0.58-3.38,1.77-4.85,3.51
			c0.71,0.86,1.32,1.84,2.15,2.56c3.34,2.87,5.6,6.57,8.01,10.16c2.62,3.9,3.93,10.77,2.77,15.32c-2.04,8.04-13.42,1.98-17.73,6.75
			c-1.97,2.19,3.57,10.31,2.47,14.11c-1.45,5.04-6.99,7.5-11.91,9.32c1.84,2.73,2.68,5.42,1.09,8.6c-1.44,2.74-4.17,4.58-6.97,5.91
			c-3.95,1.87-8.27,2.97-12.63,3.2c-6.49,0.35-12.96-1.18-19.46-0.96c-9.61,0.33-15.24,5.97-20.68,13.23
			C338.52,215.48,337.61,217.36,336.46,219.3z M268.86,143.64c0.1,23.11-11.07,46-29.35,60.13c-2.82,2.18-8.02,3.48-9,0.06
			c13.66-8.89,24.12-22.58,29.12-38.09c-43.75-17.46-95.41-13.77-136.23,9.73s-69.96,66.31-76.84,112.92
			C31.02,393.6,127.01,485.52,231.38,465.8c51.83-9.79,97.59-47.23,117.44-96.1c19.86-48.86,13.19-107.61-17.12-150.78
			c-8.74,12.03-13.89,26.64-14.62,41.49c-5.62-2.13-5.48-10.12-3.74-15.86c5.89-19.4,18.63-36.64,35.43-47.98
			C319.86,182.74,292.88,164.87,268.86,143.64z M348.39,151.5c1.89-3.77,3.69-7.17,5.32-10.65c5.39-11.48,8.92-23.6,13.28-35.61
			c2.47-6.79,3.82-13.91,4.41-21.06c0.94-11.36,3.74-22.46,2.55-33.96c-0.34-3.33-1.87-5.55-4.72-7.17
			c-10.29-5.84-22.8-8.02-34.71-8.25c-5.55-0.11-11.11,0.37-16.66,0.67c-1.69,0.09-2.48,1.17-2.14,2.84
			c2.87,14.11,7.22,27.96,8.59,42.34c0.69,7.27,0.65,14.69-0.87,21.85c-1.79,8.46-3.77,17.44-6.7,25.56
			c-0.3,0.84-0.72,1.63-1.1,2.47C326.09,138.29,337.07,145.14,348.39,151.5z M264.43,104.36c-1.15,1.44-1.77,2.73-2.81,3.4
			c-3.3,2.15-6.18,8.48-4.96,12.29c0.42,1.31,1.24,2.44,2.06,3.54c10.07,13.42,23.77,25.57,37.26,35.51
			c6.16,4.54,12.92,8.44,19.14,13.01c19.17,14.1,42.07,22.94,66.01,23.22c4.52,0.05,7.31-0.8,11.02-3.15
			c1.26-0.79,1.47-2.12,1.72-3.41c0.25-1.25,0.79-2.55-0.19-3.65c-2.19,0.22-4.24,0.42-6.29,0.63
			c-25.85,2.61-52.69-13.94-72.58-28.84c-9.63-7.21-18.63-15.24-27.11-23.75c-4.31-4.33-8.5-8.79-12.58-13.34
			c-3.57-3.99-7.75-7.83-9.64-12.96C265.24,106.16,264.91,105.49,264.43,104.36z M404.24,166.7c-0.84,0.74-1.79,1.19-2.1,1.92
			c-3.04,7.08-19.21,3.21-24.61,1.68c-7.22-2.05-14.01-5.37-20.7-8.75c-8.27-4.18-16.47-8.5-24.51-13.11
			c-16.22-9.28-32.18-20.1-42.72-35.53c-5.66-8.29-8.77-17.78-13.79-26.35c-2.29-3.92-6.3,1.9-6.91,3.88
			c-1.25,4.03-0.78,8.53,0.72,12.43c2.06,5.37,5.87,9.86,9.74,14.11c18.72,20.58,40.43,38.44,64.24,52.82
			c3.64,2.2,7.33,4.32,11.25,5.96c7.36,3.09,15.34,4.41,23.29,5.17C385.26,181.62,412.96,180.45,404.24,166.7z M310.42,128.29
			c0.15,0.03,0.3,0.05,0.46,0.06c2.43-11.64,4.35-23.39,5.76-35.2c1.27-10.64,2.13-21.52-0.11-31.99
			c-1.99-9.32-6.38-18.08-7.52-27.55c-0.06-0.5-0.1-1.05,0.16-1.48c0.37-0.59,1.15-0.72,1.83-0.8c22.71-2.45,44.58,0.59,65.08,10.59
			c0.8,0.39,1.57,1.35,1.84,2.21c0.43,1.38,0.51,2.89,0.6,4.35c0.3,5.24,0.58,10.48,0.78,15.72c0.96,25.3-6.2,51.35-18.51,73.34
			c-3.03,5.41-6.44,10.71-8.09,16.69c1.53-5.54,7.58-11.88,10.34-17.11c3.23-6.14,6.07-12.48,8.53-18.96
			c4.81-12.71,8.06-26.01,9.76-39.49c1.5-11.87,2-23.98,0.15-35.85c-1.98-12.68-23.12-18.28-33.49-21.09
			c-15.74-4.27-32.65-4.47-48.04,1.3c-2.2,0.82-4.71,2.26-4.72,4.6c-0.01,1.35,0.85,2.53,1.7,3.58c2.91,3.59,6.12,6.95,8.6,10.85
			c4.62,7.24,6.48,15.98,6.68,24.57c0.39,16.52-3.69,32.98-6.28,49.22c-0.4,2.5-0.8,5.09-0.16,7.54
			C306.36,125.7,308.12,127.86,310.42,128.29z M399.83,76.24c-1.93,0.03-3.92,1.03-6,2.49c-7.09,4.97-8.06,9.06-10.14,17.12
			c-2.19,8.49-4.87,16.86-8.08,25.02c-4.3,10.92-10.17,21.05-14.72,31.84c-0.61,1.45-0.8,3.06-1.16,4.5c2.1,1.3,2.1,1.3,3.69,1.18
			c1.29-1.48,2.59-2.81,3.69-4.27c7.38-9.78,14.21-18.67,23.31-27.07c8.02-7.42,16.41-14.43,24.73-21.5
			c1.57-1.34,3.26-2.89,3.45-4.94c0.13-1.5-0.58-2.93-1.3-4.24C414.46,91.2,407.04,76.14,399.83,76.24z M371.31,159.21
			c0.46-0.06,0.91-0.5,1.21-0.92c4.55-6.06,8.57-12.41,13.57-18.13c4.84-5.53,10.77-9.41,16.44-14.02
			c7.25-5.9,13.95-12.47,20.81-18.81c6.02-5.56,10.49-12.06,6.14-20.24c-2.5-4.71-6.67-8.26-9.96-12.46
			c-4.55-5.81-7.85-13.27-14.61-16.24c-1.12-0.49-2.36-0.84-3.56-0.6c-1.37,0.27-2.47,1.25-3.44,2.25
			c-4.39,4.49-7.59,10.13-9.22,16.2c2.91-2.22,5.83-4.43,8.74-6.65c4.2-3.19,12.42,7.53,14.85,10.4c5.15,6.1,9.66,13.26,11.29,21.18
			c0.38,1.83-0.08,2.93-1.36,4.03c-18.46,15.9-37.95,30.97-51.29,51.72c-0.46,0.71-0.8,1.89-0.02,2.23
			C371.04,159.21,371.18,159.23,371.31,159.21z M277.28,60.66c5.64,8.41,9.28,18.14,10.55,28.18c0.85,6.71,0.51,16.31,6.01,21.21
			c1.6-11.44-1.1-24.94-3.64-36.11c-1.93-8.45,11.23-5.55,16.19-5.46c-0.03,0,1.12-8.26,0.67-9.07c-2.11-3.79-9.79-1.99-13.2-1.7
			c-1.6,0.14-16.41,3.19-16.62,2.88C277.25,60.61,277.27,60.63,277.28,60.66z M403.87,134.75c-4.14,2.09-7.33,3.51-10.71,6.99
			c-6.21,6.39-11.68,12.79-16.78,19.97c-1.7,2.39-1.72,2.62,0.82,3.86c0.31,0.15,0.7,0.16,0.9,0.21
			c5.96-10.33,17.26-16.39,28.71-18.21c1.1-0.17,2.17-0.55,3.43-0.88C408.74,142.14,407.23,137.98,403.87,134.75z M416.14,155.14
			c11.59-2.82-0.48-20.4-4.67-24.61c-0.46-0.46-0.95-0.92-1.57-1.11c-0.62-0.19-1.4-0.02-1.7,0.55c-0.28,0.52-0.09,1.16,0.12,1.71
			c1.24,3.21,3.16,6.24,4.77,9.28c1.17,2.22,2.38,4.6,2.16,7.1c-0.63,7.3-11.42,3.84-15.96,5.25c-4.24,1.31-7.78,4.26-10.83,7.39
			c-0.92,0.94-7.55,7.34-3.18,7.4c1.29,0.02,3.6-4.17,4.7-5.1c2.41-2.04,5.37-3.46,8.36-4.43
			C404.12,156.69,410.26,156.57,416.14,155.14z M301.23,113.84c0.11,0.04,0.23,0.04,0.35,0.01c2.11-0.55,2.09-10.47,2.18-12.2
			c0.45-8.88,0.89-17.76,1.34-26.65c0.03-0.56,0.01-1.23-0.45-1.55c-0.26-0.18-0.59-0.2-0.91-0.22c-2.08-0.1-4.17-0.19-6.25-0.29
			c-0.39-0.02-0.82-0.03-1.14,0.2c-0.5,0.36-0.5,1.09-0.45,1.7c0.8,9.28,1.8,18.55,2.97,27.79
			C299.1,104.36,299.46,113.25,301.23,113.84z"/>
		<path d="M95.87,331.91c0.95-0.2,1.86-0.49,2.68-0.95c4.16-2.36,7.81-3.9,12.48-5.31c12.87-3.9,28-6.57,41.44-5.3
			c8.91,0.84,17.7,2.96,26.68,3.11c9.03,0.16,18.41-2.05,27.39-3.15c1.91-0.24,3.79-0.71,5.67-1.12c5.2-1.14,10.36-2.45,15.6-3.39
			c4.09-0.73,8.25-1.31,12.4-1.4c3.82-0.09,7.71,0.09,11.44,1.35c10,3.38,22.08,9.61,32.76,9.79c6.83,0.11,12.99-0.61,19.86,0.39
			c13.85,2.01,14.27,15.9,11.29,26.86c-6.55,24.14-27.81,47.02-47.82,61.19c-41.9,29.67-96.56,30.01-138.92,1.15
			c-11.57-7.88-22.08-17.74-29.53-29.67c-1.62-2.59-2.44-7.14-5.53-8.38c-5.39-2.15-8.91-6.59-10.31-12.1
			c-1.72-6.73-1.76-14.67-0.36-21.44c0.68-3.3,1.8-7.21,4.56-9.41C89.84,332.37,93.03,332.52,95.87,331.91z M100.88,377.62
			c0.58-0.35,13.96,15.16,15.25,16.48c5.39,5.48,11.16,10.59,17.31,15.2c12.2,9.12,25.98,16.26,40.82,19.9
			c26.79,6.57,55.86,1.36,79.9-12.18c13.92-7.84,26.22-18.36,36.55-30.51c5.11-6,9.74-12.41,13.88-19.11
			c3.56-5.77,9.99-14.11,7-21.26c0.25,0.6-7.21,5.08-8.07,5.51c-2.97,1.47-6.04,2.01-9.33,1.89c-7.24-0.25-14.55-3.65-21.79-1.56
			c-6.41,1.86-11.19,7.84-17.78,8.95c-4.52,0.76-9.07-0.94-13.65-1.17c-11.08-0.56-21.73,7.45-32.57,5.12
			c-5.12-1.1-9.67-4.45-14.9-4.79c-6.14-0.4-11.72,3.41-17.75,4.66c-5.19,1.08-10.76,0.17-15.34-2.49
			c-4.15-2.41-7.52-6.21-12.05-7.8c-4.42-1.55-9.29-0.78-13.94-1.35c-8.31-1.03-15.49-6.27-23.56-8.48
			c-1.83-0.5-3.83-0.84-5.61-0.16c-6.99,2.64-0.52,16.16,0.37,20.73C106.58,370.08,105.35,374.91,100.88,377.62z M145.58,349.69
			c2.6,0.3,5.13,0.95,7.7,2.53c4.07,2.51,7.28,6.45,11.77,8.06c9.97,3.58,20.61-5.76,31.03-3.9c4.45,0.8,8.34,3.58,12.77,4.51
			c10.01,2.1,19.67-5.61,29.89-5.43c3.69,0.06,7.32,1.16,11.01,1.11c6.83-0.09,11.56-4.01,17.3-6.97c5.32-2.74,11.46-3,17.27-1.72
			c4.86,1.07,9.98,2.39,14.73,0.9c2.87-0.9,5.35-2.78,7.42-4.97c1.39-1.47,2.66-3.21,2.85-5.22c0.25-2.54-1.34-4.99-3.46-6.41
			c-2.12-1.42-4.7-1.97-7.23-2.31c-7.14-0.96-13.63,2.05-20.67-0.14c-7.14-2.22-14.17-4.78-21.2-7.33
			c-3.48-1.26-6.94-2.53-10.61-3.18c-11.88-2.11-24.92,1.84-36.6,3.87c-12.87,2.24-25.93,4.23-39.03,3.2
			c-10.73-0.84-21.44-3.69-32.11-2.27c-4.36,0.58-8.6,1.87-12.85,2.99c-6.36,1.68-12.81,2.93-19.26,4.25
			c-3.39,0.7-10,4.45-4.91,8.52c2.39,1.92,5.98,0.86,8.77,1.38c3.45,0.64,6.72,1.93,9.95,3.28c5.44,2.27,11.26,4.39,17.19,4.8
			C140.21,349.44,142.93,349.38,145.58,349.69z M86.16,351.04c-0.06,5.05,0.2,10.59,2.31,15.26c1.69,3.73,9.23,11.29,12.56,4.75
			c3.37-6.62-2.16-16.01-2.38-22.85c-0.13-3.89-0.22-10.1-5.09-11.08C88.29,336.08,86.2,347.79,86.16,351.04z"/>
		<path d="M76.74,289.13c-0.07-2.06,0.04-4.13,0.27-6.16c1.41-12.84,6.76-24.87,12.17-36.6c5.63-12.23,11.58-24.69,20.61-34.82
			c10.03-11.26,20.95-15.1,35.89-14.83c2.28,0.04,4.65,0.19,6.62,1.33c2.6,1.5,4.05,4.55,4.18,7.54c0.13,3-0.91,5.94-2.36,8.57
			c-4.95,9.02-14.25,14.67-21.16,22.3c-4.73,5.22-8.32,11.36-11.57,17.61c-6.09,11.69-11.12,23.94-15.02,36.54
			c-2.07,6.68-4.69,14.43-11.32,16.67c-5.71,1.93-12.22-1.56-15.3-6.74C77.7,297.11,76.88,293.15,76.74,289.13z M80.75,286.33
			c-0.01,0.3-0.02,0.6-0.02,0.91c-0.06,3.52,0.22,7.15,1.77,10.32s4.62,5.77,8.14,5.93c3.83,0.17,7.29-2.56,9.24-5.87
			c1.94-3.3,2.71-7.14,3.68-10.85c3.22-12.23,9.01-23.61,14.76-34.88c3.32-6.51,6.69-13.1,11.56-18.55
			c7.41-8.29,18.38-14.19,21.76-24.78c0.35-1.08,0.6-2.24,0.39-3.36c-0.57-3.03-4.21-4.43-7.29-4.34
			c-14.29,0.41-25.44,4.95-34.87,16.07c-5.94,7-10.28,15.19-14.4,23.39C88.17,254.82,81.26,270.13,80.75,286.33z"/>
	</g>
</g>
</svg>
